<svg width="100" height="100" viewBox="0 0 100 100" fill="none" xmlns="http://www.w3.org/2000/svg">
<path d="M8.3335 20.8333C8.3335 18.6232 9.21147 16.5036 10.7743 14.9408C12.3371 13.378 14.4567 12.5 16.6668 12.5H83.3335C85.5436 12.5 87.6632 13.378 89.226 14.9408C90.7889 16.5036 91.6668 18.6232 91.6668 20.8333V66.6667C91.6668 68.8768 90.7889 70.9964 89.226 72.5592C87.6632 74.122 85.5436 75 83.3335 75H54.1668V83.3333H66.6668C67.7719 83.3333 68.8317 83.7723 69.6131 84.5537C70.3945 85.3351 70.8335 86.3949 70.8335 87.5C70.8335 88.6051 70.3945 89.6649 69.6131 90.4463C68.8317 91.2277 67.7719 91.6667 66.6668 91.6667H33.3335C32.2284 91.6667 31.1686 91.2277 30.3872 90.4463C29.6058 89.6649 29.1668 88.6051 29.1668 87.5C29.1668 86.3949 29.6058 85.3351 30.3872 84.5537C31.1686 83.7723 32.2284 83.3333 33.3335 83.3333H45.8335V75H16.6668C14.4567 75 12.3371 74.122 10.7743 72.5592C9.21147 70.9964 8.3335 68.8768 8.3335 66.6667V20.8333ZM83.3335 66.6667V20.8333H16.6668V66.6667H83.3335Z" fill="#F0ABFC"/>
</svg>
