<svg width="100" height="100" viewBox="0 0 100 100" fill="none" xmlns="http://www.w3.org/2000/svg">
<path d="M62.5002 70.833C61.6761 70.833 60.8705 71.0774 60.1853 71.5352C59.5001 71.9931 58.966 72.6438 58.6507 73.4052C58.3353 74.1665 58.2528 75.0043 58.4136 75.8126C58.5743 76.6208 58.9712 77.3632 59.5539 77.946C60.1366 78.5287 60.879 78.9255 61.6873 79.0863C62.4955 79.247 63.3333 79.1645 64.0947 78.8492C64.856 78.5338 65.5068 77.9998 65.9646 77.3145C66.4225 76.6293 66.6668 75.8238 66.6668 74.9997C66.6668 73.8946 66.2278 72.8348 65.4464 72.0534C64.665 71.272 63.6052 70.833 62.5002 70.833ZM37.5002 70.833H25.0002C23.8951 70.833 22.8353 71.272 22.0539 72.0534C21.2725 72.8348 20.8335 73.8946 20.8335 74.9997C20.8335 76.1047 21.2725 77.1646 22.0539 77.946C22.8353 78.7274 23.8951 79.1663 25.0002 79.1663H37.5002C38.6052 79.1663 39.665 78.7274 40.4464 77.946C41.2278 77.1646 41.6668 76.1047 41.6668 74.9997C41.6668 73.8946 41.2278 72.8348 40.4464 72.0534C39.665 71.272 38.6052 70.833 37.5002 70.833ZM75.0002 70.833C74.1761 70.833 73.3705 71.0774 72.6853 71.5352C72.0001 71.9931 71.466 72.6438 71.1507 73.4052C70.8353 74.1665 70.7528 75.0043 70.9136 75.8126C71.0743 76.6208 71.4712 77.3632 72.0539 77.946C72.6366 78.5287 73.379 78.9255 74.1873 79.0863C74.9955 79.247 75.8333 79.1645 76.5947 78.8492C77.356 78.5338 78.0068 77.9998 78.4646 77.3145C78.9225 76.6293 79.1668 75.8238 79.1668 74.9997C79.1668 73.8946 78.7278 72.8348 77.9464 72.0534C77.165 71.272 76.1052 70.833 75.0002 70.833ZM62.5002 45.833C61.6761 45.833 60.8705 46.0774 60.1853 46.5352C59.5001 46.9931 58.966 47.6438 58.6507 48.4052C58.3353 49.1665 58.2528 50.0043 58.4136 50.8125C58.5743 51.6208 58.9712 52.3632 59.5539 52.946C60.1366 53.5287 60.879 53.9255 61.6873 54.0863C62.4955 54.2471 63.3333 54.1645 64.0947 53.8492C64.856 53.5338 65.5068 52.9998 65.9646 52.3146C66.4225 51.6293 66.6668 50.8238 66.6668 49.9997C66.6668 48.8946 66.2278 47.8348 65.4464 47.0534C64.665 46.272 63.6052 45.833 62.5002 45.833ZM37.5002 45.833H25.0002C23.8951 45.833 22.8353 46.272 22.0539 47.0534C21.2725 47.8348 20.8335 48.8946 20.8335 49.9997C20.8335 51.1047 21.2725 52.1645 22.0539 52.946C22.8353 53.7274 23.8951 54.1663 25.0002 54.1663H37.5002C38.6052 54.1663 39.665 53.7274 40.4464 52.946C41.2278 52.1645 41.6668 51.1047 41.6668 49.9997C41.6668 48.8946 41.2278 47.8348 40.4464 47.0534C39.665 46.272 38.6052 45.833 37.5002 45.833ZM75.0002 20.833C74.1761 20.833 73.3705 21.0774 72.6853 21.5352C72.0001 21.9931 71.466 22.6438 71.1507 23.4052C70.8353 24.1665 70.7528 25.0043 70.9136 25.8126C71.0743 26.6208 71.4712 27.3632 72.0539 27.946C72.6366 28.5287 73.379 28.9255 74.1873 29.0863C74.9955 29.2471 75.8333 29.1645 76.5947 28.8492C77.356 28.5338 78.0068 27.9998 78.4646 27.3145C78.9225 26.6293 79.1668 25.8238 79.1668 24.9997C79.1668 23.8946 78.7278 22.8348 77.9464 22.0534C77.165 21.272 76.1052 20.833 75.0002 20.833ZM75.0002 45.833C74.1761 45.833 73.3705 46.0774 72.6853 46.5352C72.0001 46.9931 71.466 47.6438 71.1507 48.4052C70.8353 49.1665 70.7528 50.0043 70.9136 50.8125C71.0743 51.6208 71.4712 52.3632 72.0539 52.946C72.6366 53.5287 73.379 53.9255 74.1873 54.0863C74.9955 54.2471 75.8333 54.1645 76.5947 53.8492C77.356 53.5338 78.0068 52.9998 78.4646 52.3146C78.9225 51.6293 79.1668 50.8238 79.1668 49.9997C79.1668 48.8946 78.7278 47.8348 77.9464 47.0534C77.165 46.272 76.1052 45.833 75.0002 45.833ZM91.6668 20.833C91.6668 17.5178 90.3499 14.3384 88.0057 11.9942C85.6615 9.64997 82.482 8.33301 79.1668 8.33301H20.8335C17.5183 8.33301 14.3389 9.64997 11.9947 11.9942C9.65046 14.3384 8.3335 17.5178 8.3335 20.833V29.1663C8.35187 32.2499 9.50937 35.2179 11.5835 37.4997C9.50937 39.7815 8.35187 42.7494 8.3335 45.833V54.1663C8.35187 57.2499 9.50937 60.2179 11.5835 62.4997C9.50937 64.7815 8.35187 67.7494 8.3335 70.833V79.1663C8.3335 82.4815 9.65046 85.661 11.9947 88.0052C14.3389 90.3494 17.5183 91.6663 20.8335 91.6663H79.1668C82.482 91.6663 85.6615 90.3494 88.0057 88.0052C90.3499 85.661 91.6668 82.4815 91.6668 79.1663V70.833C91.6484 67.7494 90.4909 64.7815 88.4168 62.4997C90.4909 60.2179 91.6484 57.2499 91.6668 54.1663V45.833C91.6484 42.7494 90.4909 39.7815 88.4168 37.4997C90.4909 35.2179 91.6484 32.2499 91.6668 29.1663V20.833ZM83.3335 79.1663C83.3335 80.2714 82.8945 81.3312 82.1131 82.1126C81.3317 82.894 80.2719 83.333 79.1668 83.333H20.8335C19.7284 83.333 18.6686 82.894 17.8872 82.1126C17.1058 81.3312 16.6668 80.2714 16.6668 79.1663V70.833C16.6668 69.7279 17.1058 68.6681 17.8872 67.8867C18.6686 67.1053 19.7284 66.6663 20.8335 66.6663H79.1668C80.2719 66.6663 81.3317 67.1053 82.1131 67.8867C82.8945 68.6681 83.3335 69.7279 83.3335 70.833V79.1663ZM83.3335 54.1663C83.3335 55.2714 82.8945 56.3312 82.1131 57.1126C81.3317 57.894 80.2719 58.333 79.1668 58.333H20.8335C19.7284 58.333 18.6686 57.894 17.8872 57.1126C17.1058 56.3312 16.6668 55.2714 16.6668 54.1663V45.833C16.6668 44.7279 17.1058 43.6681 17.8872 42.8867C18.6686 42.1053 19.7284 41.6663 20.8335 41.6663H79.1668C80.2719 41.6663 81.3317 42.1053 82.1131 42.8867C82.8945 43.6681 83.3335 44.7279 83.3335 45.833V54.1663ZM83.3335 29.1663C83.3335 30.2714 82.8945 31.3312 82.1131 32.1126C81.3317 32.894 80.2719 33.333 79.1668 33.333H20.8335C19.7284 33.333 18.6686 32.894 17.8872 32.1126C17.1058 31.3312 16.6668 30.2714 16.6668 29.1663V20.833C16.6668 19.7279 17.1058 18.6681 17.8872 17.8867C18.6686 17.1053 19.7284 16.6663 20.8335 16.6663H79.1668C80.2719 16.6663 81.3317 17.1053 82.1131 17.8867C82.8945 18.6681 83.3335 19.7279 83.3335 20.833V29.1663ZM62.5002 20.833C61.6761 20.833 60.8705 21.0774 60.1853 21.5352C59.5001 21.9931 58.966 22.6438 58.6507 23.4052C58.3353 24.1665 58.2528 25.0043 58.4136 25.8126C58.5743 26.6208 58.9712 27.3632 59.5539 27.946C60.1366 28.5287 60.879 28.9255 61.6873 29.0863C62.4955 29.2471 63.3333 29.1645 64.0947 28.8492C64.856 28.5338 65.5068 27.9998 65.9646 27.3145C66.4225 26.6293 66.6668 25.8238 66.6668 24.9997C66.6668 23.8946 66.2278 22.8348 65.4464 22.0534C64.665 21.272 63.6052 20.833 62.5002 20.833ZM37.5002 20.833H25.0002C23.8951 20.833 22.8353 21.272 22.0539 22.0534C21.2725 22.8348 20.8335 23.8946 20.8335 24.9997C20.8335 26.1047 21.2725 27.1645 22.0539 27.946C22.8353 28.7274 23.8951 29.1663 25.0002 29.1663H37.5002C38.6052 29.1663 39.665 28.7274 40.4464 27.946C41.2278 27.1645 41.6668 26.1047 41.6668 24.9997C41.6668 23.8946 41.2278 22.8348 40.4464 22.0534C39.665 21.272 38.6052 20.833 37.5002 20.833Z" fill="#F0ABFC"/>
</svg>
